<svg width="24" height="24" viewBox="0 0 24 24" fill="none" xmlns="http://www.w3.org/2000/svg">
<path d="M23.5665 5.34191L21.4607 3.23614C21.172 2.94719 20.8208 2.80266 20.408 2.80266C19.9949 2.80266 19.6437 2.94719 19.355 3.23614L9.19742 13.4091L4.64513 8.84126C4.35607 8.5522 4.00513 8.40783 3.59236 8.40783C3.17932 8.40783 2.82837 8.5522 2.53931 8.84126L0.433541 10.9471C0.144477 11.2361 0 11.5871 0 12.0001C0 12.4128 0.144477 12.7642 0.433541 13.0531L6.0386 18.6581L8.14453 20.7638C8.43343 21.053 8.78448 21.1974 9.19742 21.1974C9.61019 21.1974 9.96124 21.0526 10.2503 20.7638L12.3562 18.6581L23.5665 7.44784C23.8553 7.15878 24 6.80778 24 6.3948C24.0002 5.98203 23.8553 5.63098 23.5665 5.34191Z" fill="black"/>
<path d="M23.5665 5.34191L21.4607 3.23614C21.172 2.94719 20.8208 2.80266 20.408 2.80266C19.9949 2.80266 19.6437 2.94719 19.355 3.23614L9.19742 13.4091L4.64513 8.84126C4.35607 8.5522 4.00513 8.40783 3.59236 8.40783C3.17932 8.40783 2.82837 8.5522 2.53931 8.84126L0.433541 10.9471C0.144477 11.2361 0 11.5871 0 12.0001C0 12.4128 0.144477 12.7642 0.433541 13.0531L6.0386 18.6581L8.14453 20.7638C8.43343 21.053 8.78448 21.1974 9.19742 21.1974C9.61019 21.1974 9.96124 21.0526 10.2503 20.7638L12.3562 18.6581L23.5665 7.44784C23.8553 7.15878 24 6.80778 24 6.3948C24.0002 5.98203 23.8553 5.63098 23.5665 5.34191Z" fill="#00A82D"/>
</svg>
