<svg width="44" height="44" viewBox="0 0 44 44" fill="none" xmlns="http://www.w3.org/2000/svg">
<path d="M22 0.916656C9.845 0.916656 0 10.5967 0 22.5353C0 32.0888 6.303 40.1903 15.0425 43.0467C16.1425 43.2502 16.5458 42.581 16.5458 42.0072C16.5458 41.4938 16.5275 40.1335 16.5183 38.3313C10.3987 39.6348 9.108 35.431 9.108 35.431C8.107 32.9358 6.6605 32.2685 6.6605 32.2685C4.66767 30.9283 6.8145 30.9558 6.8145 30.9558C9.02367 31.1062 10.1842 33.1833 10.1842 33.1833C12.1458 36.4888 15.334 35.5337 16.5917 34.9818C16.7897 33.583 17.3562 32.6315 17.985 32.0907C13.0992 31.5498 7.964 29.6908 7.964 21.4078C7.964 19.0483 8.8165 17.1197 10.2282 15.6072C9.98067 15.0608 9.23816 12.8627 10.4207 9.88532C10.4207 9.88532 12.2632 9.30599 16.4707 12.1018C18.2307 11.6215 20.1007 11.3832 21.9707 11.3722C23.8407 11.3832 25.7107 11.6215 27.4707 12.1018C31.6507 9.30599 33.4932 9.88532 33.4932 9.88532C34.6757 12.8627 33.9332 15.0608 33.7132 15.6072C35.1157 17.1197 35.9682 19.0483 35.9682 21.4078C35.9682 29.7128 30.8257 31.5407 25.9307 32.0723C26.7007 32.7213 27.4157 34.0468 27.4157 36.0727C27.4157 38.9657 27.3882 41.2903 27.3882 41.9925C27.3882 42.559 27.7732 43.2355 28.9007 43.0192C37.7025 40.1812 44 32.0742 44 22.5353C44 10.5967 34.1495 0.916656 22 0.916656Z" fill="white"/>
</svg>
