<svg width="24" height="24" viewBox="0 0 24 24" fill="none" xmlns="http://www.w3.org/2000/svg">
<path d="M17.4949 12.0001L23.4343 6.06069C23.8116 5.68376 23.9999 5.22587 23.9999 4.68697C23.9999 4.14821 23.8111 3.69039 23.4343 3.31324L20.6869 0.565581C20.3098 0.188574 19.852 0 19.3134 0C18.7744 0 18.3167 0.188574 17.9394 0.565581L12.0001 6.50499L6.06062 0.565581C5.68376 0.188574 5.22587 0 4.6869 0C4.14835 0 3.69039 0.188574 3.31317 0.565581L0.565652 3.31324C0.188716 3.69011 0 4.14821 0 4.68697C0 5.22587 0.188503 5.68355 0.565652 6.06069L6.50499 12.0001L0.565652 17.9395C0.188716 18.3167 0 18.7744 0 19.3135C0 19.8519 0.188503 20.3099 0.565652 20.6869L3.31324 23.4343C3.69039 23.8116 4.14842 24 4.68697 24C5.22587 24 5.68355 23.8111 6.06069 23.4343L12.0002 17.4949L17.94 23.4343C18.317 23.8116 18.7745 24 19.3139 24C19.8525 24 20.3104 23.8111 20.6875 23.4343L23.4343 20.6869C23.8116 20.3102 24 19.8519 24 19.3135C24 18.7744 23.8116 18.3167 23.4343 17.9395L17.4949 12.0001Z" fill="#F35548"/>
</svg>
